<?xml version="1.0" encoding="UTF-8" standalone="no"?>
<svg
   xmlns:dc="http://purl.org/dc/elements/1.1/"
   xmlns:cc="http://creativecommons.org/ns#"
   xmlns:rdf="http://www.w3.org/1999/02/22-rdf-syntax-ns#"
   xmlns:svg="http://www.w3.org/2000/svg"
   xmlns="http://www.w3.org/2000/svg"
   xmlns:sodipodi="http://sodipodi.sourceforge.net/DTD/sodipodi-0.dtd"
   xmlns:inkscape="http://www.inkscape.org/namespaces/inkscape"
   inkscape:version="1.0 (4035a4f, 2020-05-01)"
   sodipodi:docname="composable3.svg"
   id="svg174"
   version="1.1"
   viewBox="0 0 788.89 790.5">
  <metadata
     id="metadata178">
    <rdf:RDF>
      <cc:Work
         rdf:about="">
        <dc:format>image/svg+xml</dc:format>
        <dc:type
           rdf:resource="http://purl.org/dc/dcmitype/StillImage" />
        <dc:title>Asset 1</dc:title>
      </cc:Work>
    </rdf:RDF>
  </metadata>
  <sodipodi:namedview
     inkscape:current-layer="Layer_1-2"
     inkscape:window-maximized="1"
     inkscape:window-y="23"
     inkscape:window-x="0"
     inkscape:cy="352.11756"
     inkscape:cx="496.00229"
     inkscape:zoom="1.2751423"
     showgrid="false"
     id="namedview176"
     inkscape:window-height="1395"
     inkscape:window-width="2560"
     inkscape:pageshadow="2"
     inkscape:pageopacity="0"
     guidetolerance="10"
     gridtolerance="10"
     objecttolerance="10"
     borderopacity="1"
     bordercolor="#666666"
     pagecolor="#ffffff" />
  <defs
     id="defs12">
    <style
       id="style10">.cls-1{fill:#f2f2f2;}.cls-2{fill:#d7e0ff;}.cls-3{fill:#eaf0ff;}.cls-4{fill:#fb5d64;}.cls-5{fill:#fff;}.cls-13,.cls-15,.cls-6,.cls-7{fill:none;stroke-linecap:round;stroke-linejoin:round;}.cls-6{stroke:#b2c3fb;stroke-width:3px;}.cls-13,.cls-7{stroke:#1b3c87;}.cls-15,.cls-7{stroke-width:3.69px;}.cls-8{fill:#eecb55;}.cls-9{fill:#46dbc9;}.cls-10{fill:#3c3744;}.cls-11{fill:#8088dc;}.cls-12{fill:#1b3c87;}.cls-13{stroke-width:3.14px;}.cls-14{fill:#b2c3fb;}.cls-15{stroke:#eaf0ff;}</style>
  </defs>
  <title
     id="title14">Asset 1</title>
  <g
     data-name="Layer 2"
     id="Layer_2">
    <g
       data-name="Layer 1"
       id="Layer_1-2">
      <path
         id="path16"
         d="M613.77,177.9C693,247.24,779.71,319.11,788.16,399.22c8.67,80.32-61.3,168.89-140.56,218.57s-167.84,60.45-274.38,78C266.9,713.54,142.82,738.27,71,688.6s-91.53-173.76-46.72-253S178.54,322.07,250.41,252.52C322.28,183.19,356.52,78.77,409.58,60.16c53.06-18.81,124.93,48.41,204.19,117.74"
         class="cls-1" />
      <rect
         transform="rotate(50)"
         y="-157.57967"
         x="506.36783"
         height="32.9375"
         width="47.837799"
         id="rect194"
         style="fill:#aa4400" />
      <ellipse
         ry="29.800596"
         rx="34.113834"
         cy="283.69235"
         cx="415.2731"
         id="path192"
         style="fill:#aa4400;stroke-width:1.21895" />
      <rect
         id="rect18"
         height="182.26"
         width="240.72"
         y="31.63"
         x="483.88"
         class="cls-2" />
      <rect
         id="rect20"
         height="126.38"
         width="70.49"
         y="65.9"
         x="613.84"
         class="cls-3" />
      <path
         id="path22"
         d="M590.63,93.7a29.07,29.07,0,1,1-29.06-29.06A29.06,29.06,0,0,1,590.63,93.7"
         class="cls-4" />
      <path
         id="path24"
         d="M727.51,404a71.11,71.11,0,1,1-71.11-71.11A71.11,71.11,0,0,1,727.51,404"
         class="cls-5" />
      <rect
         id="rect26"
         height="152.37"
         width="152.37"
         y="271.93"
         x="619.19"
         class="cls-6" />
      <path
         id="path28"
         d="M369.36,788.66H747.44"
         class="cls-7" />
      <path
         id="path30"
         d="M1.85,788.66H280.44"
         class="cls-7" />
      <path
         style="fill:#3c3744;fill-opacity:1"
         id="path32"
         d="M436.62,274.66l-1.55,7.46-10.4,3.24s-5.15-16.06-5.86-19.69c-5,3.73-33.82,11.81-38.79,12.53-.69-3.87-.69-37.41,27.27-37.41,24.63,0,35.67,24.67,36.32,27.56-1.44.84-7,2.9-7,6.31"
         class="cls-8" />
      <path
         id="path34"
         d="M443.53,339.23c-6.25,0-51.61,45.77-53.47,55.35l-14.61,75.59L451.12,449l4.44-96.28-10.78-13.52Z"
         class="cls-9" />
      <path
         id="path36"
         d="M350.06,472.13c-.13-5.27,43.31-142.41,48.21-147.07a16.27,16.27,0,0,1,12.37-4.8c2.16.1,12.54,5,14.73,10.17-3.74,8.86-12.75,13.78-12.75,13.78L395.09,452.53Z"
         class="cls-5" />
      <path
         id="path38"
         d="M403,554.37l62.78,77.71-30.45,30.61-92.16-80.57,21.8-30Z"
         class="cls-10" />
      <path
         id="path40"
         d="M386.46,693.47C378,685.78,278.75,562.15,278.75,546.85c0-34.11,38.7-46.2,49.26-48.86,14.55-1.32,79.09-6.72,89.24-6.3,7.32,7.93,92.32,26.23,104.64,24.65,0,6.17-9.8,49.31-79.32,49.31-7.28,0-62.09-2.19-63.11-2.19,0,12.83,35.13,96.34,38.48,102"
         class="cls-10" />
      <path
         id="path42"
         d="M476.4,316.87c56.27,0,68.45,101.51,68.45,130.32,0,36.73-14.9,66.08-22,68.83-20.11,7.73-93.93-17.59-98.61-29.58-22.82-58.4,14.74-169.57,52.2-169.57"
         class="cls-9" />
      <path
         id="path44"
         d="M428.36,247.38a51.18,51.18,0,0,1,11.38,14.81q.74,1.44,1.38,2.88"
         class="cls-7" />
      <path
         id="path46"
         d="M381.82,292c-10.51-20.42-6.06-43.64,9.94-51.87a27.17,27.17,0,0,1,16.86-2.53"
         class="cls-7" />
      <path
         id="path48"
         d="M437.37,308.18a26.32,26.32,0,0,1-7.57,5.88c-10.92,5.62-24.4,2.8-35.19-6.05"
         class="cls-7" />
      <path
         id="path50"
         d="M433.05,271.08A9.59,9.59,0,1,1,442,284.21a9.43,9.43,0,0,1-4.17-1"
         class="cls-7" />
      <path
         id="path52"
         d="M441.15,341.18c-1.41-5.05-6.48-20.61-12.81-26.43"
         class="cls-7" />
      <path
         id="path54"
         d="M446.2,286.61c1.95,6.56,19.58,30.21,23.92,33.49-.26,2.85-5.87,8.36-12.18,13"
         class="cls-7" />
      <path
         id="path56"
         d="M423.67,281l7.83-2.43,1.55-7.47"
         class="cls-7" />
      <path
         id="path58"
         d="M402.61,267.32c5.82-1.94,10.79-3.87,12.63-5.23.51,2.64,3.38,11.86,4.9,16.68"
         class="cls-7" />
      <path
         id="path60"
         d="M376.44,274.62c1.92-.28,7.37-1.65,13.64-3.44"
         class="cls-7" />
      <path
         id="path62"
         d="M433.75,492.2c-7.9-3.94-13.39-7.77-14.56-10.77-7-18-8.33-41.05-5.65-64.3"
         class="cls-7" />
      <path
         id="path64"
         d="M532.05,384.27c5.86,23.5,7.79,46.45,7.79,57.91,0,36.74-14.9,66.09-22,68.83-9.43,3.63-30.65,0-51-6.14"
         class="cls-7" />
      <path
         id="path66"
         d="M463.92,313.3a21,21,0,0,1,7.48-1.44c14.83,0,26.6,7.06,35.89,18"
         class="cls-7" />
      <path
         id="path68"
         d="M424.76,368.59a163.24,163.24,0,0,1,15-31.9"
         class="cls-7" />
      <path
         id="path70"
         d="M389.77,327.49c1.66-4.2,2.88-6.85,3.49-7.44a16.27,16.27,0,0,1,12.37-4.8c2.16.1,12.54,5,14.73,10.17"
         class="cls-7" />
      <path
         id="path72"
         d="M357.3,424.3c7.37-23.56,16.73-52.37,24.11-73.75"
         class="cls-7" />
      <path
         id="path74"
         d="M345.05,466.41c0-1,1.47-6.53,3.94-14.92"
         class="cls-7" />
      <path
         id="path76"
         d="M407.31,324.3c2.14.34,7.31,3.49,10,6.64"
         class="cls-7" />
      <path
         id="path78"
         d="M401.32,331.89c2.13.34,7.31,3.49,10,6.64"
         class="cls-7" />
      <path
         id="path80"
         d="M390.09,446.94c.17-4.8,12-87.58,17.23-103.85"
         class="cls-7" />
      <path
         id="path82"
         d="M415.5,353.12c7.28-7.79,16.1-16.16,23.18-19.55"
         class="cls-7" />
      <path
         id="path84"
         d="M185.91,395l46,74.76"
         class="cls-7" />
      <path
         id="path86"
         d="M516.88,511.33c0,6.17-9.79,49.31-79.32,49.31-7.28,0-62.09-2.19-63.11-2.19,0,12.83,35.13,96.34,38.48,102"
         class="cls-7" />
      <path
         id="path88"
         d="M323,493c-10.21,3.82-49.27,14.75-49.27,48.86,0,15.3,99.23,138.93,107.71,146.62"
         class="cls-7" />
      <path
         id="path90"
         d="M376.49,694,422,665"
         class="cls-7" />
      <path
         id="path92"
         d="M381.45,702l46.93-28.43"
         class="cls-7" />
      <path
         id="path94"
         d="M400.22,631.33l29.16,26.35"
         class="cls-7" />
      <path
         id="path96"
         d="M417.33,573.17l43.4,53.91"
         class="cls-7" />
      <path
         id="path98"
         d="M465.76,623.21l-38.35,37.27"
         class="cls-7" />
      <path
         id="path100"
         d="M470.6,630.4l-38.35,37.27"
         class="cls-7" />
      <path
         id="path102"
         d="M165.11,755.52v33.14"
         class="cls-7" />
      <path
         id="path104"
         d="M165.11,493V694"
         class="cls-7" />
      <path
         id="path106"
         d="M318.15,493V788.66"
         class="cls-7" />
      <path
         id="path108"
         d="M496.12,341.43c26.79,9.32,13.15,66.7,5.61,68.64s-53-16.05-54.42-20.89,17.52-58.65,48.81-47.75"
         class="cls-9" />
      <path
         id="path110"
         d="M462.11,344.88c7.75-7.77,17.55-12.45,29-8.46,26.79,9.32,13.15,66.7,5.6,68.64s-53-16.05-54.42-20.89c-.34-1.14.45-5,2.28-10.12"
         class="cls-7" />
      <path
         id="path112"
         d="M450.44,392c-2.18,3.2-14.25,42.23-14.25,42.23S350.92,471,346.67,472.9c-1.55-2.12-6.65-6-17-6-18.95,0-22.23,12.57-22.23,15.27s28.81,8.7,36.54,8.51,115.82-16.63,119.68-18.56,29.73-63,29.73-63c-7-.37-39.27-10.36-42.93-17.11"
         class="cls-5" />
      <path
         id="path114"
         d="M396.68,477.6c-27.28,4.17-54,8-57.73,8.08-7.73.2-36.54-5.8-36.54-8.51s3.28-15.27,22.23-15.27c10.37,0,15.47,3.87,17,6,4.25-1.93,89.52-38.67,89.52-38.67s12.07-39,14.25-42.23"
         class="cls-7" />
      <path
         id="path116"
         d="M488.36,404.1s-25.86,61.09-29.73,63c-1.1.55-10.63,2.28-23.88,4.46"
         class="cls-7" />
      <rect
         id="rect118"
         height="15.31"
         width="165.03"
         y="562.86"
         x="413.83"
         class="cls-11" />
      <path
         id="path120"
         d="M512.09,573.17H408.81V557.86h165v15.31h-29"
         class="cls-7" />
      <rect
         id="rect122"
         height="12.6"
         width="251.09"
         y="484.67"
         x="120.38"
         class="cls-11" />
      <path
         id="path124"
         d="M185.91,480.38H367.18V493H116.09v-12.6h38.64"
         class="cls-7" />
      <rect
         id="rect126"
         height="10.6"
         width="88.43"
         y="474.07"
         x="236.22"
         class="cls-4" />
      <rect
         id="rect128"
         height="10.6"
         width="88.43"
         y="469.78"
         x="231.93"
         class="cls-7" />
      <path
         id="path130"
         d="M390.07,704.83l29,31.71-15.86,44,48.65-37.83-28.2-58.17"
         class="cls-5" />
      <path
         id="path132"
         d="M435.52,714.32,418.63,679.5"
         class="cls-7" />
      <path
         id="path134"
         d="M385.07,699.82l29,31.71-15.85,44,48.64-37.83L441.9,727.5"
         class="cls-7" />
      <path
         id="path136"
         d="M469.53,641.31l16.15,27.42,11.15,5.8-21.22,49.28-4.84-31-28-25.53"
         class="cls-5" />
      <path
         id="path138"
         d="M445,668.8l-7.15-6.53"
         class="cls-7" />
      <path
         id="path140"
         d="M464.52,636.31l16.15,27.41,11.15,5.81L470.6,718.81l-4.84-31-6-5.48"
         class="cls-7" />
      <path
         id="path142"
         d="M451.43,573.17v214"
         class="cls-7" />
      <path
         id="path144"
         d="M531.24,654.85V787.2"
         class="cls-7" />
      <path
         id="path146"
         d="M531.24,573.17v45.08"
         class="cls-7" />
      <path
         id="path148"
         d="M403.21,278.51c.49,1.7,1.63,2.86,2.55,2.59s1.28-1.85.79-3.54S404.93,274.7,404,275s-1.27,1.85-.79,3.54"
         class="cls-12" />
      <path
         id="path150"
         d="M392.11,297.2a8.15,8.15,0,0,1-.58,1.83"
         class="cls-13" />
      <path
         id="path152"
         d="M391.05,287.29a22.15,22.15,0,0,1,1.3,6.87"
         class="cls-13" />
      <path
         id="path154"
         d="M418.41,296.24c.29,2.24-1.28,5.72-4.31,7.75"
         class="cls-13" />
      <rect
         id="rect156"
         height="79.48"
         width="263.43"
         y="254.42"
         x="20.98"
         class="cls-2" />
      <path
         id="path158"
         d="M261.75,293.76a23.2,23.2,0,1,1-23.2-23.19,23.2,23.2,0,0,1,23.2,23.19"
         class="cls-14" />
      <path
         id="path160"
         d="M194.73,280.31H63.79"
         class="cls-15" />
      <path
         id="path162"
         d="M194.73,307.22H125.35"
         class="cls-15" />
      <rect
         id="rect164"
         height="198.66"
         width="156.56"
         x="217.9"
         class="cls-3" />
      <path
         id="path166"
         d="M278.75,71.23l45.9,107.89L421,112.23Z"
         class="cls-6" />
      <rect
         id="rect168"
         height="37.65"
         width="90.15"
         y="99.87"
         x="52"
         class="cls-3" />
      <rect
         id="rect170"
         height="37.65"
         width="90.15"
         y="146.41"
         x="10.05"
         class="cls-3" />
      <path
         id="path184"
         d="m 354.14146,457.86879 c 3.21351,-13.17775 34.15157,-108.00751 40.34109,-123.65143 3.66534,-9.26411 5.47754,-11.33637 11.45874,-13.10313 4.39648,-1.29866 7.1035,-0.46188 10.68475,3.30278 2.12688,2.23583 3.45541,3.03883 4.55281,2.75185 1.0591,-0.27696 1.94453,0.19758 2.79744,1.49927 1.17436,1.79231 1.13152,2.08032 -0.72728,4.88915 -1.90021,2.87141 -5.18817,6.24715 -9.0858,9.32835 -1.71517,1.35591 -2.31308,4.30499 -8.31827,41.02871 -3.55865,21.76229 -7.11042,43.68524 -7.89282,48.71766 -1.26304,8.12381 -1.62739,9.24319 -3.24907,9.98207 -1.387,0.63197 -1.8265,0.59419 -1.8265,-0.15697 0,-4.94114 10.3548,-69.70448 13.81716,-86.41841 2.59792,-12.541 2.72626,-14.76819 0.87228,-15.13709 -1.93212,-0.38445 -3.14348,2.8993 -5.58399,15.13709 -2.71055,13.59191 -8.32479,48.19036 -11.5176,70.97875 l -2.58296,18.4356 -16.35032,7.05175 c -8.99267,3.87846 -16.70671,7.17452 -17.1423,7.32457 -0.49173,0.16938 -0.58551,-0.57392 -0.24736,-1.96057 z m 58.73286,-119.45302 c 0,-3.37263 -10.23959,-9.92532 -12.9206,-8.26837 -1.75683,1.08578 -0.72681,3.27283 2.13749,4.53858 1.61746,0.71476 4.176,2.36158 5.68564,3.65959 3.21202,2.76175 5.09747,2.78771 5.09747,0.0702 z m 6.40216,-6.73978 c 0.99424,-2.59096 -9.75523,-10.58834 -12.70868,-9.45499 -2.10398,0.80737 -1.28597,3.48385 1.46353,4.78857 1.43394,0.68045 3.81603,2.27073 5.29353,3.53394 2.99309,2.55901 5.24013,2.98658 5.95162,1.13248 z"
         style="fill:#aa4400;stroke-width:0.784226" />
      <path
         id="path186"
         d="m 371.70244,485.43601 c 0,-0.64698 -0.61758,-1.21127 -1.3724,-1.25397 -0.75481,-0.0427 5.10797,-1.07073 13.02842,-2.28451 7.92044,-1.21379 14.76066,-2.56674 15.20048,-3.00656 1.36143,-1.36143 0.002,-3.25862 -2.32482,-3.24528 -1.19968,0.007 -7.65121,0.85324 -14.33674,1.8808 -7.22875,1.11104 -12.45747,1.58275 -12.90052,1.16382 -0.40976,-0.38745 -10.55568,-0.70445 -22.5465,-0.70445 h -21.80149 v -1.96056 c 0,-1.21991 -0.4444,-1.96057 -1.17634,-1.96057 -0.84487,0 -1.17634,-0.86318 -1.17634,-3.06331 v -3.06332 l 3.8323,-0.52707 c 4.60078,-0.63277 10.80604,0.13894 13.19703,1.64124 0.9553,0.60023 2.23959,1.09133 2.85397,1.09133 0.61437,0 1.93707,0.66401 2.93931,1.47558 2.51479,2.03635 5.08495,0.80653 5.94888,-2.84654 0.64404,-2.7233 0.75359,-2.78281 22.18882,-12.0542 11.84787,-5.12457 21.67865,-9.3174 21.84617,-9.3174 0.16751,0 0.14919,1.05871 -0.0407,2.35268 -0.18991,1.29397 -0.14174,2.36343 0.10705,2.37658 0.24879,0.0131 9.6278,-3.91966 20.84223,-8.73956 l 20.38988,-8.76345 6.90802,-21.0487 6.90802,-21.04869 1.71847,1.62731 c 2.83944,2.68883 11.61306,6.74783 22.32687,10.32921 l 10.10938,3.37934 -8.71977,19.57159 c -10.00848,22.46411 -16.51071,35.91686 -17.92887,37.09382 -0.54137,0.44931 -6.06383,1.73718 -12.27212,2.86195 -6.20829,1.12477 -11.57833,2.22459 -11.93341,2.44404 -0.83083,0.51348 -0.83938,3.23102 -0.0118,3.7425 0.3486,0.21546 5.37745,-0.45032 11.17522,-1.47949 16.74578,-2.97259 15.31849,-2.40017 18.32363,-7.34875 3.02175,-4.97597 11.53136,-23.07882 20.04456,-42.64167 5.08055,-11.67483 5.92251,-13.13579 7.57013,-13.13579 1.01959,0 1.8538,0.30244 1.8538,0.67209 0,1.29049 -15.05086,35.11884 -21.54641,48.42773 l -6.54856,13.41754 -3.40154,0.85284 c -5.9711,1.49711 -85.51832,14.26819 -88.8722,14.26819 -0.22117,0 -0.40212,-0.52935 -0.40212,-1.17634 z"
         style="fill:#aa4400;stroke-width:0.784226" />
    </g>
  </g>
</svg>
